<?xml version="1.0" encoding="utf-8"?>
<!-- Svg Vector Icons : http://www.onlinewebfonts.com/icon -->
<!DOCTYPE svg PUBLIC "-//W3C//DTD SVG 1.1//EN" "http://www.w3.org/Graphics/SVG/1.1/DTD/svg11.dtd">
<svg version="1.1" xmlns="http://www.w3.org/2000/svg" xmlns:xlink="http://www.w3.org/1999/xlink" x="0px" y="0px" viewBox="0 0 1000 1000" enable-background="new 0 0 1000 1000" xml:space="preserve">
<metadata> Svg Vector Icons : http://www.onlinewebfonts.com/icon </metadata>
<g><g transform="translate(0.000000,512.000000) scale(0.100000,-0.100000)"><path d="M1487.6,4995.9c-95.7-38.3-153.1-86.1-195.2-160.8c-23-40.2-296.7-872.8-612.5-1852.8L109.5,1202.2l-5.7-855.6c-3.8-696.7,0-869,23-932.2c21.1-67,23-90,0-149.3c-34.4-101.4-36.4-1724.6,0-1822.2c19.1-53.6,19.1-80.4,0-134C94.2-2783,90.3-4387,121-4501.8c28.7-99.5,156.9-227.8,256.5-256.5c109.1-30.6,9135.9-30.6,9245,0c99.5,28.7,227.8,157,256.5,256.5c30.6,114.8,26.8,1718.8-5.8,1810.7c-19.1,53.6-19.1,80.4,0,134c36.4,97.6,34.5,1720.8,0,1820.3c-21,61.2-21,84.2,0,143.6c19.1,57.4,24.9,260.3,26.8,909.2v838.4l-47.9,137.8c-24.9,76.6-285.2,890-576.1,1805C8985.1,4014,8730.5,4793,8709.4,4833.2c-45.9,78.5-111,132.1-204.8,164.6C8410.8,5030.3,1569.9,5028.4,1487.6,4995.9z M8874.1,3072.2c271.8-855.6,491.9-1560,486.2-1563.8c-5.7-5.7-1973.4-7.7-4371.8-5.7l-4364.1,5.7l490,1531.3c269.9,842.2,495.7,1546.6,503.4,1565.7c11.5,30.6,185.7,32.5,3386,28.7l3374.5-5.7L8874.1,3072.2z M9507.6,312.1v-775.2H5000H492.3L486.5,293c-1.9,415.4,0,767.5,5.7,780.9c5.7,19.1,914.9,23,4511.5,19.1l4503.8-5.7V312.1z M9507.6-1640.3v-775.2H5000H492.3l-5.7,756.1c-1.9,415.4,0,767.6,5.7,780.9c5.7,19.1,914.9,23,4511.5,19.1l4503.8-5.7V-1640.3z M9513.3-3590.7c1.9-539.8-1.9-761.8-17.2-779c-30.6-36.4-8954.1-40.2-8990.4-3.8c-17.2,17.2-23,214.4-23,771.4c0,413.4,5.7,756.1,13.4,761.8c5.7,7.7,2036.6,11.5,4511.5,9.6l4500-5.7L9513.3-3590.7z"/><path d="M8408.9,685.4c-323.5-103.4-361.7-553.2-61.2-712.1c287.1-151.2,641.2,120.6,558.9,428.8C8845.3,627.9,8623.3,754.3,8408.9,685.4z"/><path d="M8349.6-1299.6c-243.1-124.4-281.4-457.5-72.7-635.5c222-191.4,551.3-84.2,629.7,204.8c40.2,147.4-30.6,321.6-168.4,415.4C8638.6-1245.9,8464.4-1240.2,8349.6-1299.6z"/><path d="M8378.3-3246.2c-302.4-135.9-315.8-553.2-23-700.5c168.4-84.2,342.6-49.8,467,91.9C9088.4-3550.5,8743.9-3079.7,8378.3-3246.2z"/></g></g>
</svg>